<mxfile host="app.diagrams.net" agent="Mozilla/5.0 (Windows NT 10.0; Win64; x64) AppleWebKit/537.36 (KHTML, like Gecko) Chrome/131.0.0.0 Safari/537.36" version="25.0.3">
  <diagram id="C5RBs43oDa-KdzZeNtuy" name="Page-1">
    <mxGraphModel dx="1801" dy="1652" grid="1" gridSize="10" guides="1" tooltips="1" connect="1" arrows="1" fold="1" page="1" pageScale="1" pageWidth="827" pageHeight="1169" math="0" shadow="0">
      <root>
        <mxCell id="WIyWlLk6GJQsqaUBKTNV-0" />
        <mxCell id="WIyWlLk6GJQsqaUBKTNV-1" parent="WIyWlLk6GJQsqaUBKTNV-0" />
        <mxCell id="qqMjI8lRrYb-x9k9qRwa-0" value="&lt;i&gt;People&lt;/i&gt;" style="swimlane;fontStyle=1;align=center;verticalAlign=top;childLayout=stackLayout;horizontal=1;startSize=26;horizontalStack=0;resizeParent=1;resizeParentMax=0;resizeLast=0;collapsible=1;marginBottom=0;whiteSpace=wrap;html=1;" parent="WIyWlLk6GJQsqaUBKTNV-1" vertex="1">
          <mxGeometry x="250" y="190" width="190" height="320" as="geometry" />
        </mxCell>
        <mxCell id="qqMjI8lRrYb-x9k9qRwa-1" value="-name:String&lt;div&gt;-mood:Mood&lt;/div&gt;&lt;div&gt;- location:Place&lt;/div&gt;&lt;div&gt;-gravityFlag:int&lt;/div&gt;&lt;div&gt;-locationFlag:boolean&lt;/div&gt;" style="text;strokeColor=none;fillColor=none;align=left;verticalAlign=top;spacingLeft=4;spacingRight=4;overflow=hidden;rotatable=0;points=[[0,0.5],[1,0.5]];portConstraint=eastwest;whiteSpace=wrap;html=1;" parent="qqMjI8lRrYb-x9k9qRwa-0" vertex="1">
          <mxGeometry y="26" width="190" height="84" as="geometry" />
        </mxCell>
        <mxCell id="qqMjI8lRrYb-x9k9qRwa-2" value="" style="line;strokeWidth=1;fillColor=none;align=left;verticalAlign=middle;spacingTop=-1;spacingLeft=3;spacingRight=3;rotatable=0;labelPosition=right;points=[];portConstraint=eastwest;strokeColor=inherit;" parent="qqMjI8lRrYb-x9k9qRwa-0" vertex="1">
          <mxGeometry y="110" width="190" height="8" as="geometry" />
        </mxCell>
        <mxCell id="qqMjI8lRrYb-x9k9qRwa-3" value="+People()&lt;div&gt;+People(String)&lt;/div&gt;&lt;div&gt;+getName():String&lt;/div&gt;&lt;div&gt;+setName(String):void&lt;/div&gt;&lt;div&gt;+getMood(Mood):Mood&lt;/div&gt;&lt;div&gt;+setMood(Mood):void&lt;/div&gt;&lt;div&gt;+getLocation():Place&lt;/div&gt;&lt;div&gt;+getGravityFlag():int&lt;/div&gt;&lt;div&gt;+setGravityFlag(int):void&lt;/div&gt;&lt;div&gt;+getLocationFlag():boolean&lt;/div&gt;&lt;div&gt;+setLocationFlag(boolean):void&lt;/div&gt;&lt;div&gt;+toString():String&lt;/div&gt;&lt;div&gt;+showMood(Mood):void&lt;/div&gt;" style="text;strokeColor=none;fillColor=none;align=left;verticalAlign=top;spacingLeft=4;spacingRight=4;overflow=hidden;rotatable=0;points=[[0,0.5],[1,0.5]];portConstraint=eastwest;whiteSpace=wrap;html=1;" parent="qqMjI8lRrYb-x9k9qRwa-0" vertex="1">
          <mxGeometry y="118" width="190" height="202" as="geometry" />
        </mxCell>
        <mxCell id="qqMjI8lRrYb-x9k9qRwa-16" value="" style="endArrow=classic;html=1;rounded=0;" parent="qqMjI8lRrYb-x9k9qRwa-0" target="qqMjI8lRrYb-x9k9qRwa-3" edge="1">
          <mxGeometry width="50" height="50" relative="1" as="geometry">
            <mxPoint x="90" y="360" as="sourcePoint" />
            <mxPoint x="140" y="310" as="targetPoint" />
          </mxGeometry>
        </mxCell>
        <mxCell id="qqMjI8lRrYb-x9k9qRwa-4" value="Klepka" style="swimlane;fontStyle=0;childLayout=stackLayout;horizontal=1;startSize=26;fillColor=none;horizontalStack=0;resizeParent=1;resizeParentMax=0;resizeLast=0;collapsible=1;marginBottom=0;whiteSpace=wrap;html=1;" parent="WIyWlLk6GJQsqaUBKTNV-1" vertex="1">
          <mxGeometry x="80" y="550" width="140" height="70" as="geometry" />
        </mxCell>
        <mxCell id="qqMjI8lRrYb-x9k9qRwa-6" value="+Klepka()&lt;div&gt;+Klepka(String)&lt;/div&gt;" style="text;strokeColor=none;fillColor=none;align=left;verticalAlign=top;spacingLeft=4;spacingRight=4;overflow=hidden;rotatable=0;points=[[0,0.5],[1,0.5]];portConstraint=eastwest;whiteSpace=wrap;html=1;" parent="qqMjI8lRrYb-x9k9qRwa-4" vertex="1">
          <mxGeometry y="26" width="140" height="44" as="geometry" />
        </mxCell>
        <mxCell id="qqMjI8lRrYb-x9k9qRwa-8" value="Zvezdochkin" style="swimlane;fontStyle=0;childLayout=stackLayout;horizontal=1;startSize=26;fillColor=none;horizontalStack=0;resizeParent=1;resizeParentMax=0;resizeLast=0;collapsible=1;marginBottom=0;whiteSpace=wrap;html=1;" parent="WIyWlLk6GJQsqaUBKTNV-1" vertex="1">
          <mxGeometry x="274" y="550" width="140" height="70" as="geometry" />
        </mxCell>
        <mxCell id="qqMjI8lRrYb-x9k9qRwa-9" value="+&lt;span style=&quot;text-align: center;&quot;&gt;Zvezdochkin&lt;/span&gt;()&lt;div&gt;+&lt;span style=&quot;text-align: center;&quot;&gt;Zvezdochkin&lt;/span&gt;(String)&lt;/div&gt;" style="text;strokeColor=none;fillColor=none;align=left;verticalAlign=top;spacingLeft=4;spacingRight=4;overflow=hidden;rotatable=0;points=[[0,0.5],[1,0.5]];portConstraint=eastwest;whiteSpace=wrap;html=1;" parent="qqMjI8lRrYb-x9k9qRwa-8" vertex="1">
          <mxGeometry y="26" width="140" height="44" as="geometry" />
        </mxCell>
        <mxCell id="qqMjI8lRrYb-x9k9qRwa-11" value="Znayka" style="swimlane;fontStyle=0;childLayout=stackLayout;horizontal=1;startSize=26;fillColor=none;horizontalStack=0;resizeParent=1;resizeParentMax=0;resizeLast=0;collapsible=1;marginBottom=0;whiteSpace=wrap;html=1;" parent="WIyWlLk6GJQsqaUBKTNV-1" vertex="1">
          <mxGeometry x="480" y="550" width="230" height="90" as="geometry" />
        </mxCell>
        <mxCell id="qqMjI8lRrYb-x9k9qRwa-12" value="+&lt;span style=&quot;text-align: center;&quot;&gt;Znayka&lt;/span&gt;()&lt;div&gt;+&lt;span style=&quot;text-align: center;&quot;&gt;Znayka&lt;/span&gt;String)&lt;/div&gt;&lt;div&gt;&lt;br&gt;&lt;/div&gt;" style="text;strokeColor=none;fillColor=none;align=left;verticalAlign=top;spacingLeft=4;spacingRight=4;overflow=hidden;rotatable=0;points=[[0,0.5],[1,0.5]];portConstraint=eastwest;whiteSpace=wrap;html=1;" parent="qqMjI8lRrYb-x9k9qRwa-11" vertex="1">
          <mxGeometry y="26" width="230" height="64" as="geometry" />
        </mxCell>
        <mxCell id="qqMjI8lRrYb-x9k9qRwa-15" value="" style="endArrow=classic;html=1;rounded=0;entryX=0.205;entryY=1.006;entryDx=0;entryDy=0;entryPerimeter=0;" parent="WIyWlLk6GJQsqaUBKTNV-1" target="qqMjI8lRrYb-x9k9qRwa-3" edge="1">
          <mxGeometry width="50" height="50" relative="1" as="geometry">
            <mxPoint x="150" y="550" as="sourcePoint" />
            <mxPoint x="280" y="520" as="targetPoint" />
          </mxGeometry>
        </mxCell>
        <mxCell id="qqMjI8lRrYb-x9k9qRwa-17" value="" style="endArrow=classic;html=1;rounded=0;entryX=0.535;entryY=1.016;entryDx=0;entryDy=0;entryPerimeter=0;" parent="WIyWlLk6GJQsqaUBKTNV-1" target="qqMjI8lRrYb-x9k9qRwa-3" edge="1">
          <mxGeometry width="50" height="50" relative="1" as="geometry">
            <mxPoint x="590" y="550" as="sourcePoint" />
            <mxPoint x="640" y="500" as="targetPoint" />
          </mxGeometry>
        </mxCell>
        <mxCell id="qqMjI8lRrYb-x9k9qRwa-18" value="StatusZeroGravityDeviceException" style="swimlane;fontStyle=0;childLayout=stackLayout;horizontal=1;startSize=26;fillColor=none;horizontalStack=0;resizeParent=1;resizeParentMax=0;resizeLast=0;collapsible=1;marginBottom=0;whiteSpace=wrap;html=1;" parent="WIyWlLk6GJQsqaUBKTNV-1" vertex="1">
          <mxGeometry x="1106" y="420" width="270" height="70" as="geometry" />
        </mxCell>
        <mxCell id="qqMjI8lRrYb-x9k9qRwa-19" value="&amp;nbsp;+&lt;span style=&quot;text-align: center;&quot;&gt;StatusZeroGravityDeviceException()&lt;/span&gt;&lt;div&gt;&lt;span style=&quot;text-align: center;&quot;&gt;+&lt;/span&gt;&lt;span style=&quot;text-align: center; background-color: initial;&quot;&gt;StatusZeroGravityDeviceException(String)&lt;/span&gt;&lt;/div&gt;" style="text;strokeColor=none;fillColor=none;align=left;verticalAlign=top;spacingLeft=4;spacingRight=4;overflow=hidden;rotatable=0;points=[[0,0.5],[1,0.5]];portConstraint=eastwest;whiteSpace=wrap;html=1;" parent="qqMjI8lRrYb-x9k9qRwa-18" vertex="1">
          <mxGeometry y="26" width="270" height="44" as="geometry" />
        </mxCell>
        <mxCell id="qqMjI8lRrYb-x9k9qRwa-22" value="ZeroGravityDevice" style="swimlane;fontStyle=0;childLayout=stackLayout;horizontal=1;startSize=26;fillColor=none;horizontalStack=0;resizeParent=1;resizeParentMax=0;resizeLast=0;collapsible=1;marginBottom=0;whiteSpace=wrap;html=1;" parent="WIyWlLk6GJQsqaUBKTNV-1" vertex="1">
          <mxGeometry x="1080" y="190" width="310" height="150" as="geometry" />
        </mxCell>
        <mxCell id="qqMjI8lRrYb-x9k9qRwa-23" value="&lt;div style=&quot;text-align: center;&quot;&gt;&lt;span style=&quot;background-color: initial;&quot;&gt;+getR():double&lt;/span&gt;&lt;/div&gt;&lt;div style=&quot;text-align: center;&quot;&gt;&lt;div style=&quot;text-align: left;&quot;&gt;+changeGravityCondition&lt;/div&gt;&lt;div style=&quot;text-align: left;&quot;&gt;(ArrayList&amp;lt;People&amp;gt; peopleArrayList):void&lt;/div&gt;&lt;div style=&quot;text-align: left;&quot;&gt;+open(People people, ArrayList&amp;lt;People&amp;gt; peopleArrayList):void&lt;/div&gt;&lt;div style=&quot;text-align: left;&quot;&gt;+close(People people, ArrayList&amp;lt;People&amp;gt; peopleArrayList):void&lt;/div&gt;&lt;/div&gt;&lt;div style=&quot;text-align: center;&quot;&gt;&lt;span style=&quot;background-color: initial;&quot;&gt;&lt;br&gt;&lt;/span&gt;&lt;/div&gt;&lt;div style=&quot;text-align: center;&quot;&gt;&lt;br&gt;&lt;/div&gt;" style="text;strokeColor=none;fillColor=none;align=left;verticalAlign=top;spacingLeft=4;spacingRight=4;overflow=hidden;rotatable=0;points=[[0,0.5],[1,0.5]];portConstraint=eastwest;whiteSpace=wrap;html=1;" parent="qqMjI8lRrYb-x9k9qRwa-22" vertex="1">
          <mxGeometry y="26" width="310" height="124" as="geometry" />
        </mxCell>
        <mxCell id="qqMjI8lRrYb-x9k9qRwa-27" value="&lt;i&gt;Place&lt;/i&gt;" style="swimlane;fontStyle=1;align=center;verticalAlign=top;childLayout=stackLayout;horizontal=1;startSize=26;horizontalStack=0;resizeParent=1;resizeParentMax=0;resizeLast=0;collapsible=1;marginBottom=0;whiteSpace=wrap;html=1;" parent="WIyWlLk6GJQsqaUBKTNV-1" vertex="1">
          <mxGeometry x="-530" y="190" width="210" height="190" as="geometry" />
        </mxCell>
        <mxCell id="qqMjI8lRrYb-x9k9qRwa-28" value="-placeName:String&lt;div&gt;peopleArrayList:ArrayList&amp;lt;People&amp;gt;&lt;/div&gt;" style="text;strokeColor=none;fillColor=none;align=left;verticalAlign=top;spacingLeft=4;spacingRight=4;overflow=hidden;rotatable=0;points=[[0,0.5],[1,0.5]];portConstraint=eastwest;whiteSpace=wrap;html=1;" parent="qqMjI8lRrYb-x9k9qRwa-27" vertex="1">
          <mxGeometry y="26" width="210" height="44" as="geometry" />
        </mxCell>
        <mxCell id="qqMjI8lRrYb-x9k9qRwa-29" value="" style="line;strokeWidth=1;fillColor=none;align=left;verticalAlign=middle;spacingTop=-1;spacingLeft=3;spacingRight=3;rotatable=0;labelPosition=right;points=[];portConstraint=eastwest;strokeColor=inherit;" parent="qqMjI8lRrYb-x9k9qRwa-27" vertex="1">
          <mxGeometry y="70" width="210" height="8" as="geometry" />
        </mxCell>
        <mxCell id="qqMjI8lRrYb-x9k9qRwa-30" value="+Place()&lt;div&gt;+Place(String)&lt;/div&gt;&lt;div&gt;+getPlaceName():String&lt;/div&gt;&lt;div&gt;+setPlaceName(String):name&lt;/div&gt;&lt;div&gt;+setMember(People):People&lt;/div&gt;&lt;div&gt;+showMember():void&lt;/div&gt;&lt;div&gt;+toString():String&lt;/div&gt;" style="text;strokeColor=none;fillColor=none;align=left;verticalAlign=top;spacingLeft=4;spacingRight=4;overflow=hidden;rotatable=0;points=[[0,0.5],[1,0.5]];portConstraint=eastwest;whiteSpace=wrap;html=1;" parent="qqMjI8lRrYb-x9k9qRwa-27" vertex="1">
          <mxGeometry y="78" width="210" height="112" as="geometry" />
        </mxCell>
        <mxCell id="qqMjI8lRrYb-x9k9qRwa-38" value="&lt;i&gt;AstronomicalObject&lt;/i&gt;" style="swimlane;fontStyle=0;childLayout=stackLayout;horizontal=1;startSize=26;fillColor=none;horizontalStack=0;resizeParent=1;resizeParentMax=0;resizeLast=0;collapsible=1;marginBottom=0;whiteSpace=wrap;html=1;" parent="WIyWlLk6GJQsqaUBKTNV-1" vertex="1">
          <mxGeometry x="-770" y="440" width="180" height="60" as="geometry" />
        </mxCell>
        <mxCell id="qqMjI8lRrYb-x9k9qRwa-39" value="+AstronomicalObject()&lt;div&gt;+&lt;i style=&quot;background-color: initial; text-align: center;&quot;&gt;AstronomicalObject(String)&lt;/i&gt;&lt;/div&gt;&lt;div&gt;&lt;br&gt;&lt;/div&gt;&lt;div&gt;&lt;i style=&quot;background-color: initial; text-align: center;&quot;&gt;&lt;br&gt;&lt;/i&gt;&lt;/div&gt;" style="text;strokeColor=none;fillColor=none;align=left;verticalAlign=top;spacingLeft=4;spacingRight=4;overflow=hidden;rotatable=0;points=[[0,0.5],[1,0.5]];portConstraint=eastwest;whiteSpace=wrap;html=1;" parent="qqMjI8lRrYb-x9k9qRwa-38" vertex="1">
          <mxGeometry y="26" width="180" height="34" as="geometry" />
        </mxCell>
        <mxCell id="qqMjI8lRrYb-x9k9qRwa-46" value="Moon" style="swimlane;fontStyle=0;childLayout=stackLayout;horizontal=1;startSize=26;fillColor=none;horizontalStack=0;resizeParent=1;resizeParentMax=0;resizeLast=0;collapsible=1;marginBottom=0;whiteSpace=wrap;html=1;" parent="WIyWlLk6GJQsqaUBKTNV-1" vertex="1">
          <mxGeometry x="-690" y="550" width="140" height="70" as="geometry" />
        </mxCell>
        <mxCell id="qqMjI8lRrYb-x9k9qRwa-47" value="+&lt;span style=&quot;text-align: center;&quot;&gt;Moon&lt;/span&gt;()&lt;div&gt;+&lt;span style=&quot;text-align: center;&quot;&gt;Moon&lt;/span&gt;(String)&lt;/div&gt;" style="text;strokeColor=none;fillColor=none;align=left;verticalAlign=top;spacingLeft=4;spacingRight=4;overflow=hidden;rotatable=0;points=[[0,0.5],[1,0.5]];portConstraint=eastwest;whiteSpace=wrap;html=1;" parent="qqMjI8lRrYb-x9k9qRwa-46" vertex="1">
          <mxGeometry y="26" width="140" height="44" as="geometry" />
        </mxCell>
        <mxCell id="qqMjI8lRrYb-x9k9qRwa-48" value="" style="endArrow=classic;html=1;rounded=0;entryX=0.286;entryY=1.007;entryDx=0;entryDy=0;entryPerimeter=0;" parent="WIyWlLk6GJQsqaUBKTNV-1" target="qqMjI8lRrYb-x9k9qRwa-30" edge="1">
          <mxGeometry width="50" height="50" relative="1" as="geometry">
            <mxPoint x="-690" y="440" as="sourcePoint" />
            <mxPoint x="-640" y="390" as="targetPoint" />
          </mxGeometry>
        </mxCell>
        <mxCell id="qqMjI8lRrYb-x9k9qRwa-50" value="" style="endArrow=classic;html=1;rounded=0;entryX=0.54;entryY=1.108;entryDx=0;entryDy=0;entryPerimeter=0;" parent="WIyWlLk6GJQsqaUBKTNV-1" target="qqMjI8lRrYb-x9k9qRwa-39" edge="1">
          <mxGeometry width="50" height="50" relative="1" as="geometry">
            <mxPoint x="-630" y="550" as="sourcePoint" />
            <mxPoint x="-580" y="500" as="targetPoint" />
          </mxGeometry>
        </mxCell>
        <mxCell id="qqMjI8lRrYb-x9k9qRwa-52" value="&lt;i&gt;MyObj&lt;/i&gt;" style="swimlane;fontStyle=0;childLayout=stackLayout;horizontal=1;startSize=26;fillColor=none;horizontalStack=0;resizeParent=1;resizeParentMax=0;resizeLast=0;collapsible=1;marginBottom=0;whiteSpace=wrap;html=1;" parent="WIyWlLk6GJQsqaUBKTNV-1" vertex="1">
          <mxGeometry x="-440" y="450" width="140" height="70" as="geometry" />
        </mxCell>
        <mxCell id="qqMjI8lRrYb-x9k9qRwa-53" value="+&lt;i style=&quot;text-align: center;&quot;&gt;MyObj&lt;/i&gt;()&lt;div&gt;+&lt;i style=&quot;text-align: center;&quot;&gt;MyObj&lt;/i&gt;(String)&lt;/div&gt;" style="text;strokeColor=none;fillColor=none;align=left;verticalAlign=top;spacingLeft=4;spacingRight=4;overflow=hidden;rotatable=0;points=[[0,0.5],[1,0.5]];portConstraint=eastwest;whiteSpace=wrap;html=1;" parent="qqMjI8lRrYb-x9k9qRwa-52" vertex="1">
          <mxGeometry y="26" width="140" height="44" as="geometry" />
        </mxCell>
        <mxCell id="qqMjI8lRrYb-x9k9qRwa-55" value="PyramidHill" style="swimlane;fontStyle=0;childLayout=stackLayout;horizontal=1;startSize=26;fillColor=none;horizontalStack=0;resizeParent=1;resizeParentMax=0;resizeLast=0;collapsible=1;marginBottom=0;whiteSpace=wrap;html=1;" parent="WIyWlLk6GJQsqaUBKTNV-1" vertex="1">
          <mxGeometry x="-510" y="585" width="140" height="70" as="geometry" />
        </mxCell>
        <mxCell id="qqMjI8lRrYb-x9k9qRwa-56" value="+&lt;span style=&quot;text-align: center;&quot;&gt;PyramidHill(&lt;/span&gt;)&lt;div&gt;+&lt;span style=&quot;text-align: center;&quot;&gt;PyramidHill&lt;/span&gt;(String)&lt;/div&gt;" style="text;strokeColor=none;fillColor=none;align=left;verticalAlign=top;spacingLeft=4;spacingRight=4;overflow=hidden;rotatable=0;points=[[0,0.5],[1,0.5]];portConstraint=eastwest;whiteSpace=wrap;html=1;" parent="qqMjI8lRrYb-x9k9qRwa-55" vertex="1">
          <mxGeometry y="26" width="140" height="44" as="geometry" />
        </mxCell>
        <mxCell id="qqMjI8lRrYb-x9k9qRwa-58" value="Rocket" style="swimlane;fontStyle=0;childLayout=stackLayout;horizontal=1;startSize=26;fillColor=none;horizontalStack=0;resizeParent=1;resizeParentMax=0;resizeLast=0;collapsible=1;marginBottom=0;whiteSpace=wrap;html=1;" parent="WIyWlLk6GJQsqaUBKTNV-1" vertex="1">
          <mxGeometry x="-300" y="585" width="140" height="70" as="geometry" />
        </mxCell>
        <mxCell id="qqMjI8lRrYb-x9k9qRwa-59" value="+&lt;span style=&quot;text-align: center;&quot;&gt;Rocket&lt;/span&gt;&lt;span style=&quot;text-align: center;&quot;&gt;(&lt;/span&gt;)&lt;div&gt;+&lt;span style=&quot;text-align: center;&quot;&gt;Rocket&lt;/span&gt;(String)&lt;/div&gt;" style="text;strokeColor=none;fillColor=none;align=left;verticalAlign=top;spacingLeft=4;spacingRight=4;overflow=hidden;rotatable=0;points=[[0,0.5],[1,0.5]];portConstraint=eastwest;whiteSpace=wrap;html=1;" parent="qqMjI8lRrYb-x9k9qRwa-58" vertex="1">
          <mxGeometry y="26" width="140" height="44" as="geometry" />
        </mxCell>
        <mxCell id="qqMjI8lRrYb-x9k9qRwa-60" value="UnknownPlace" style="swimlane;fontStyle=0;childLayout=stackLayout;horizontal=1;startSize=26;fillColor=none;horizontalStack=0;resizeParent=1;resizeParentMax=0;resizeLast=0;collapsible=1;marginBottom=0;whiteSpace=wrap;html=1;" parent="WIyWlLk6GJQsqaUBKTNV-1" vertex="1">
          <mxGeometry x="-100" y="585" width="140" height="70" as="geometry" />
        </mxCell>
        <mxCell id="qqMjI8lRrYb-x9k9qRwa-61" value="+&lt;span style=&quot;text-align: center;&quot;&gt;UnknownPlace&lt;/span&gt;&lt;span style=&quot;text-align: center;&quot;&gt;(&lt;/span&gt;)&lt;div&gt;+&lt;span style=&quot;text-align: center;&quot;&gt;UnknownPlace&lt;/span&gt;(String)&lt;/div&gt;" style="text;strokeColor=none;fillColor=none;align=left;verticalAlign=top;spacingLeft=4;spacingRight=4;overflow=hidden;rotatable=0;points=[[0,0.5],[1,0.5]];portConstraint=eastwest;whiteSpace=wrap;html=1;" parent="qqMjI8lRrYb-x9k9qRwa-60" vertex="1">
          <mxGeometry y="26" width="140" height="44" as="geometry" />
        </mxCell>
        <mxCell id="qqMjI8lRrYb-x9k9qRwa-62" value="" style="endArrow=classic;html=1;rounded=0;exitX=0.436;exitY=-0.06;exitDx=0;exitDy=0;exitPerimeter=0;entryX=0.433;entryY=1.04;entryDx=0;entryDy=0;entryPerimeter=0;" parent="WIyWlLk6GJQsqaUBKTNV-1" source="qqMjI8lRrYb-x9k9qRwa-55" target="qqMjI8lRrYb-x9k9qRwa-53" edge="1">
          <mxGeometry width="50" height="50" relative="1" as="geometry">
            <mxPoint x="-450" y="590" as="sourcePoint" />
            <mxPoint x="-380" y="520" as="targetPoint" />
          </mxGeometry>
        </mxCell>
        <mxCell id="qqMjI8lRrYb-x9k9qRwa-63" value="" style="endArrow=classic;html=1;rounded=0;entryX=0.63;entryY=1.083;entryDx=0;entryDy=0;entryPerimeter=0;exitX=0.446;exitY=-0.073;exitDx=0;exitDy=0;exitPerimeter=0;" parent="WIyWlLk6GJQsqaUBKTNV-1" source="qqMjI8lRrYb-x9k9qRwa-58" target="qqMjI8lRrYb-x9k9qRwa-53" edge="1">
          <mxGeometry width="50" height="50" relative="1" as="geometry">
            <mxPoint x="-250" y="590" as="sourcePoint" />
            <mxPoint x="-200" y="540" as="targetPoint" />
          </mxGeometry>
        </mxCell>
        <mxCell id="qqMjI8lRrYb-x9k9qRwa-64" value="" style="endArrow=classic;html=1;rounded=0;entryX=0.895;entryY=1.083;entryDx=0;entryDy=0;entryPerimeter=0;exitX=0.25;exitY=0;exitDx=0;exitDy=0;" parent="WIyWlLk6GJQsqaUBKTNV-1" source="qqMjI8lRrYb-x9k9qRwa-60" target="qqMjI8lRrYb-x9k9qRwa-53" edge="1">
          <mxGeometry width="50" height="50" relative="1" as="geometry">
            <mxPoint x="-70" y="590" as="sourcePoint" />
            <mxPoint x="-20" y="540" as="targetPoint" />
          </mxGeometry>
        </mxCell>
        <mxCell id="qqMjI8lRrYb-x9k9qRwa-67" value="" style="endArrow=classic;html=1;rounded=0;entryX=0.699;entryY=1.058;entryDx=0;entryDy=0;entryPerimeter=0;" parent="WIyWlLk6GJQsqaUBKTNV-1" target="qqMjI8lRrYb-x9k9qRwa-30" edge="1">
          <mxGeometry width="50" height="50" relative="1" as="geometry">
            <mxPoint x="-380" y="450" as="sourcePoint" />
            <mxPoint x="-330" y="400" as="targetPoint" />
          </mxGeometry>
        </mxCell>
        <mxCell id="qqMjI8lRrYb-x9k9qRwa-73" value="&lt;p style=&quot;margin:0px;margin-top:4px;text-align:center;&quot;&gt;&lt;i&gt;&amp;lt;&amp;lt;Interface&amp;gt;&amp;gt;&lt;/i&gt;&lt;br&gt;&lt;b&gt;Condition&lt;/b&gt;&lt;/p&gt;&lt;hr size=&quot;1&quot; style=&quot;border-style:solid;&quot;&gt;&lt;p style=&quot;margin:0px;margin-left:4px;&quot;&gt;&lt;/p&gt;&lt;p style=&quot;margin:0px;margin-left:4px;&quot;&gt;+gravityCondition(People):void&lt;/p&gt;" style="verticalAlign=top;align=left;overflow=fill;html=1;whiteSpace=wrap;" parent="WIyWlLk6GJQsqaUBKTNV-1" vertex="1">
          <mxGeometry x="-130" y="-20" width="190" height="70" as="geometry" />
        </mxCell>
        <mxCell id="qqMjI8lRrYb-x9k9qRwa-74" value="&lt;p style=&quot;margin:0px;margin-top:4px;text-align:center;&quot;&gt;&lt;i&gt;&amp;lt;&amp;lt;Interface&amp;gt;&amp;gt;&lt;/i&gt;&lt;br&gt;&lt;b&gt;Move&lt;/b&gt;&lt;/p&gt;&lt;hr size=&quot;1&quot; style=&quot;border-style:solid;&quot;&gt;&lt;p style=&quot;margin:0px;margin-left:4px;&quot;&gt;&lt;/p&gt;&lt;p style=&quot;margin:0px;margin-left:4px;&quot;&gt;+run(Place,People):void&lt;/p&gt;&lt;p style=&quot;margin:0px;margin-left:4px;&quot;&gt;+run(Place,Place):void&lt;/p&gt;&lt;p style=&quot;margin:0px;margin-left:4px;&quot;&gt;+flyUp(AstronomicalObject):void&lt;/p&gt;&lt;p style=&quot;margin:0px;margin-left:4px;&quot;&gt;+flyDown(AstronomicalObject):void&lt;/p&gt;&lt;p style=&quot;margin:0px;margin-left:4px;&quot;&gt;+stop(Place):void&lt;/p&gt;&lt;p style=&quot;margin:0px;margin-left:4px;&quot;&gt;+move(Place,Place):void&lt;/p&gt;&lt;p style=&quot;margin:0px;margin-left:4px;&quot;&gt;+comeOut(Place):void&lt;/p&gt;" style="verticalAlign=top;align=left;overflow=fill;html=1;whiteSpace=wrap;" parent="WIyWlLk6GJQsqaUBKTNV-1" vertex="1">
          <mxGeometry x="150" y="-90" width="190" height="150" as="geometry" />
        </mxCell>
        <mxCell id="qqMjI8lRrYb-x9k9qRwa-76" value="&lt;p style=&quot;margin:0px;margin-top:4px;text-align:center;&quot;&gt;&lt;i&gt;&amp;lt;&amp;lt;Interface&amp;gt;&amp;gt;&lt;/i&gt;&lt;br&gt;&lt;b&gt;Say&lt;/b&gt;&lt;/p&gt;&lt;hr size=&quot;1&quot; style=&quot;border-style:solid;&quot;&gt;&lt;p style=&quot;margin:0px;margin-left:4px;&quot;&gt;&lt;/p&gt;&lt;p style=&quot;margin:0px;margin-left:4px;&quot;&gt;+say(String):void&lt;/p&gt;&lt;p style=&quot;margin:0px;margin-left:4px;&quot;&gt;+tell(People,String):void&lt;/p&gt;" style="verticalAlign=top;align=left;overflow=fill;html=1;whiteSpace=wrap;" parent="WIyWlLk6GJQsqaUBKTNV-1" vertex="1">
          <mxGeometry x="490" y="-50" width="190" height="90" as="geometry" />
        </mxCell>
        <mxCell id="qqMjI8lRrYb-x9k9qRwa-79" value="" style="endArrow=classic;html=1;rounded=0;entryX=0.001;entryY=0.467;entryDx=0;entryDy=0;entryPerimeter=0;" parent="WIyWlLk6GJQsqaUBKTNV-1" target="qqMjI8lRrYb-x9k9qRwa-3" edge="1">
          <mxGeometry width="50" height="50" relative="1" as="geometry">
            <mxPoint x="-10" y="50" as="sourcePoint" />
            <mxPoint x="40" as="targetPoint" />
          </mxGeometry>
        </mxCell>
        <mxCell id="qqMjI8lRrYb-x9k9qRwa-80" value="" style="endArrow=classic;html=1;rounded=0;entryX=-0.015;entryY=0.094;entryDx=0;entryDy=0;entryPerimeter=0;" parent="WIyWlLk6GJQsqaUBKTNV-1" target="qqMjI8lRrYb-x9k9qRwa-3" edge="1">
          <mxGeometry width="50" height="50" relative="1" as="geometry">
            <mxPoint x="230" y="50" as="sourcePoint" />
            <mxPoint x="280" as="targetPoint" />
          </mxGeometry>
        </mxCell>
        <mxCell id="qqMjI8lRrYb-x9k9qRwa-81" value="" style="endArrow=classic;html=1;rounded=0;entryX=1.028;entryY=0.203;entryDx=0;entryDy=0;entryPerimeter=0;" parent="WIyWlLk6GJQsqaUBKTNV-1" target="qqMjI8lRrYb-x9k9qRwa-3" edge="1">
          <mxGeometry width="50" height="50" relative="1" as="geometry">
            <mxPoint x="580" y="40" as="sourcePoint" />
            <mxPoint x="630" y="-10" as="targetPoint" />
          </mxGeometry>
        </mxCell>
        <mxCell id="qqMjI8lRrYb-x9k9qRwa-83" value="&lt;p style=&quot;margin:0px;margin-top:4px;text-align:center;&quot;&gt;&lt;i&gt;&amp;lt;&amp;lt;Interface&amp;gt;&amp;gt;&lt;/i&gt;&lt;br&gt;&lt;b&gt;ShowMyObj&lt;/b&gt;&lt;/p&gt;&lt;hr size=&quot;1&quot; style=&quot;border-style:solid;&quot;&gt;&lt;p style=&quot;margin:0px;margin-left:4px;&quot;&gt;&lt;/p&gt;&lt;p style=&quot;margin:0px;margin-left:4px;&quot;&gt;+showMyObj(MyObj):void&lt;/p&gt;" style="verticalAlign=top;align=left;overflow=fill;html=1;whiteSpace=wrap;" parent="WIyWlLk6GJQsqaUBKTNV-1" vertex="1">
          <mxGeometry x="-820" y="240" width="190" height="70" as="geometry" />
        </mxCell>
        <mxCell id="qqMjI8lRrYb-x9k9qRwa-84" value="" style="endArrow=classic;html=1;rounded=0;entryX=0.083;entryY=-0.01;entryDx=0;entryDy=0;entryPerimeter=0;" parent="WIyWlLk6GJQsqaUBKTNV-1" target="qqMjI8lRrYb-x9k9qRwa-38" edge="1">
          <mxGeometry width="50" height="50" relative="1" as="geometry">
            <mxPoint x="-730" y="310" as="sourcePoint" />
            <mxPoint x="-680" y="260" as="targetPoint" />
          </mxGeometry>
        </mxCell>
        <mxCell id="qqMjI8lRrYb-x9k9qRwa-85" value="ShortPersons" style="swimlane;fontStyle=0;childLayout=stackLayout;horizontal=1;startSize=26;fillColor=none;horizontalStack=0;resizeParent=1;resizeParentMax=0;resizeLast=0;collapsible=1;marginBottom=0;whiteSpace=wrap;html=1;" parent="WIyWlLk6GJQsqaUBKTNV-1" vertex="1">
          <mxGeometry x="770" y="554" width="140" height="66" as="geometry" />
        </mxCell>
        <mxCell id="W2tw8MLwtqeph-Zvwe43-0" value="+ShortPersons()&lt;div&gt;+ShortPersons(String)&lt;/div&gt;" style="text;html=1;align=center;verticalAlign=middle;resizable=0;points=[];autosize=1;strokeColor=none;fillColor=none;" parent="qqMjI8lRrYb-x9k9qRwa-85" vertex="1">
          <mxGeometry y="26" width="140" height="40" as="geometry" />
        </mxCell>
        <mxCell id="IBf1IBXkyTUlRJ0WFAr3-0" value="MOOD" style="swimlane;fontStyle=0;childLayout=stackLayout;horizontal=1;startSize=26;fillColor=none;horizontalStack=0;resizeParent=1;resizeParentMax=0;resizeLast=0;collapsible=1;marginBottom=0;whiteSpace=wrap;html=1;" parent="WIyWlLk6GJQsqaUBKTNV-1" vertex="1">
          <mxGeometry x="550" y="310" width="240" height="56" as="geometry" />
        </mxCell>
        <mxCell id="IBf1IBXkyTUlRJ0WFAr3-5" value="SCARED, UNKNOWN" style="text;html=1;align=center;verticalAlign=middle;resizable=0;points=[];autosize=1;strokeColor=none;fillColor=none;" parent="IBf1IBXkyTUlRJ0WFAr3-0" vertex="1">
          <mxGeometry y="26" width="240" height="30" as="geometry" />
        </mxCell>
        <mxCell id="IBf1IBXkyTUlRJ0WFAr3-6" value="" style="endArrow=classic;html=1;rounded=0;entryX=1.023;entryY=0.317;entryDx=0;entryDy=0;entryPerimeter=0;" parent="WIyWlLk6GJQsqaUBKTNV-1" target="qqMjI8lRrYb-x9k9qRwa-3" edge="1">
          <mxGeometry width="50" height="50" relative="1" as="geometry">
            <mxPoint x="550" y="330" as="sourcePoint" />
            <mxPoint x="600" y="280" as="targetPoint" />
          </mxGeometry>
        </mxCell>
        <mxCell id="W2tw8MLwtqeph-Zvwe43-1" value="" style="endArrow=classic;html=1;rounded=0;entryX=1.032;entryY=0.673;entryDx=0;entryDy=0;entryPerimeter=0;exitX=0.283;exitY=-0.116;exitDx=0;exitDy=0;exitPerimeter=0;" parent="WIyWlLk6GJQsqaUBKTNV-1" source="qqMjI8lRrYb-x9k9qRwa-85" edge="1">
          <mxGeometry width="50" height="50" relative="1" as="geometry">
            <mxPoint x="583.92" y="526.05" as="sourcePoint" />
            <mxPoint x="430.0000000000004" y="509.9959999999999" as="targetPoint" />
          </mxGeometry>
        </mxCell>
        <mxCell id="zsUM_E0WxcaPfj9BtZW1-2" value="&lt;p style=&quot;margin:0px;margin-top:4px;text-align:center;&quot;&gt;&lt;i&gt;&amp;lt;&amp;lt;Interface&amp;gt;&amp;gt;&lt;/i&gt;&lt;br&gt;&lt;b&gt;Saw&lt;/b&gt;&lt;/p&gt;&lt;hr size=&quot;1&quot; style=&quot;border-style:solid;&quot;&gt;&lt;p style=&quot;margin:0px;margin-left:4px;&quot;&gt;&lt;/p&gt;&lt;p style=&quot;margin:0px;margin-left:4px;&quot;&gt;+saw(String):void&lt;/p&gt;&lt;p style=&quot;margin:0px;margin-left:4px;&quot;&gt;&lt;br&gt;&lt;/p&gt;" style="verticalAlign=top;align=left;overflow=fill;html=1;whiteSpace=wrap;" vertex="1" parent="WIyWlLk6GJQsqaUBKTNV-1">
          <mxGeometry x="680" y="80" width="190" height="90" as="geometry" />
        </mxCell>
        <mxCell id="zsUM_E0WxcaPfj9BtZW1-3" value="" style="endArrow=classic;html=1;rounded=0;exitX=-0.024;exitY=0.756;exitDx=0;exitDy=0;exitPerimeter=0;entryX=1.02;entryY=0.279;entryDx=0;entryDy=0;entryPerimeter=0;" edge="1" parent="WIyWlLk6GJQsqaUBKTNV-1" source="zsUM_E0WxcaPfj9BtZW1-2" target="qqMjI8lRrYb-x9k9qRwa-3">
          <mxGeometry width="50" height="50" relative="1" as="geometry">
            <mxPoint x="560" y="220" as="sourcePoint" />
            <mxPoint x="610" y="170" as="targetPoint" />
          </mxGeometry>
        </mxCell>
      </root>
    </mxGraphModel>
  </diagram>
</mxfile>
